<svg xmlns="http://www.w3.org/2000/svg" viewBox="0 0 32 32" width="32" height="32" fill="none">
  <rect width="32" height="32" rx="4" fill="#000000"/>
  <rect x="4" y="4" width="4" height="4" rx="0.5" fill="#ffffff"/>
  <rect x="9" y="4" width="4" height="4" rx="0.5" fill="#ffffff"/>
  <rect x="14" y="4" width="4" height="4" rx="0.5" fill="#ffffff"/>
  <rect x="19" y="4" width="4" height="4" rx="0.5" fill="#ffffff"/>
  <rect x="4" y="9" width="4" height="4" rx="0.5" fill="#ffffff"/>
  <rect x="24" y="9" width="4" height="4" rx="0.5" fill="#ffffff"/>
  <rect x="4" y="14" width="4" height="4" rx="0.5" fill="#ffffff"/>
  <rect x="9" y="14" width="4" height="4" rx="0.5" fill="#ffffff"/>
  <rect x="14" y="14" width="4" height="4" rx="0.5" fill="#ffffff"/>
  <rect x="19" y="14" width="4" height="4" rx="0.5" fill="#ffffff"/>
  <rect x="4" y="19" width="4" height="4" rx="0.5" fill="#ffffff"/>
  <rect x="4" y="24" width="4" height="4" rx="0.5" fill="#ffffff"/>
</svg>